<?xml version="1.0" standalone="no"?>
<!DOCTYPE svg PUBLIC "-//W3C//DTD SVG 20010904//EN"
 "http://www.w3.org/TR/2001/REC-SVG-20010904/DTD/svg10.dtd">
<svg version="1.0" xmlns="http://www.w3.org/2000/svg"
 width="3024.000000pt" height="3024.000000pt" viewBox="0 0 3024.000000 3024.000000"
 preserveAspectRatio="xMidYMid meet">
<metadata>
Created by potrace 1.16, written by Peter Selinger 2001-2019
</metadata>
<g transform="translate(0.000000,3024.000000) scale(0.100000,-0.100000)"
fill="#000000" stroke="none">
<path d="M16672 20388 c-7 -7 -12 -23 -12 -35 0 -19 11 -29 53 -48 28 -14 66
-25 82 -25 65 0 422 -200 546 -306 25 -21 91 -76 145 -121 55 -44 136 -118
179 -162 88 -90 236 -221 331 -293 33 -26 89 -80 124 -120 36 -40 87 -98 115
-128 90 -96 307 -440 332 -525 16 -56 93 -38 93 21 0 46 -140 299 -254 459
-88 124 -283 337 -361 393 -74 54 -217 182 -277 248 -91 99 -419 365 -536 434
-59 35 -130 78 -158 96 -90 57 -188 102 -249 113 -77 14 -138 14 -153 -1z"/>
<path d="M15808 20287 c-63 -13 -119 -31 -135 -43 -51 -38 -38 -112 16 -100
14 3 66 14 115 25 74 17 118 19 260 17 150 -3 182 -7 260 -30 49 -14 125 -30
170 -36 118 -14 368 -98 468 -156 105 -62 157 -104 369 -300 276 -256 541
-499 576 -528 52 -44 216 -244 248 -304 34 -63 45 -70 69 -46 19 19 15 53 -13
119 -35 79 -197 260 -418 465 -120 111 -298 277 -396 368 -240 223 -345 305
-479 373 -72 37 -320 111 -400 119 -42 5 -126 22 -185 39 -92 26 -124 30 -213
29 -58 0 -127 2 -155 5 -34 4 -84 -1 -157 -16z"/>
<path d="M17302 20257 c-12 -13 -22 -30 -22 -38 0 -16 54 -52 63 -42 15 15 95
-30 432 -242 185 -117 368 -286 532 -492 196 -246 341 -484 439 -720 52 -124
55 -141 42 -186 -14 -48 1 -63 43 -41 40 20 54 71 38 137 -46 196 -250 558
-481 854 -189 241 -356 401 -573 545 -82 55 -151 101 -153 103 -8 8 109 -19
155 -37 29 -11 136 -74 237 -141 101 -67 203 -133 226 -147 56 -34 134 -128
251 -305 246 -370 412 -808 387 -1020 -3 -26 0 -30 23 -33 19 -2 33 4 48 24
32 41 28 123 -15 284 -102 388 -377 902 -586 1095 -36 33 -133 105 -216 160
-281 185 -314 201 -472 230 -158 28 -192 30 -205 11 -11 -15 -17 -14 -70 4
-75 26 -97 25 -123 -3z"/>
<path d="M15570 20055 c-8 -3 -66 -9 -128 -13 -110 -9 -115 -10 -170 -49 -70
-49 -87 -78 -66 -110 14 -22 13 -23 -12 -23 -42 0 -240 -57 -323 -93 -61 -27
-77 -38 -88 -65 -12 -29 -11 -34 7 -52 20 -20 20 -20 -8 -26 -149 -33 -350
-103 -433 -151 -31 -19 -59 -62 -60 -95 0 -25 -93 -98 -224 -175 -81 -47 -104
-79 -87 -118 17 -37 48 -32 127 21 39 25 80 50 93 55 12 5 48 28 79 51 59 43
192 92 338 124 99 22 542 30 755 15 210 -15 286 -26 440 -61 69 -16 163 -34
210 -40 109 -15 286 -61 375 -98 116 -48 248 -133 264 -170 17 -38 43 -42 65
-10 36 51 7 90 -139 183 -161 103 -297 153 -531 195 -66 12 -171 34 -234 50
-150 38 -312 58 -535 68 -179 7 -569 0 -655 -12 l-45 -6 40 16 c86 33 211 55
360 64 85 4 159 11 164 14 22 14 457 7 574 -9 240 -32 448 -79 637 -144 229
-79 394 -150 475 -205 130 -89 162 -121 201 -201 35 -76 62 -98 89 -75 20 17
19 35 -7 111 -18 53 -33 76 -92 135 -134 133 -289 219 -586 326 -207 74 -485
139 -725 169 -129 16 -491 17 -620 1 -55 -6 -138 -13 -184 -15 l-85 -4 55 24
c30 14 81 31 114 40 33 8 91 24 129 35 64 19 76 20 165 9 117 -15 380 -30 676
-40 l220 -7 95 -38 c52 -21 158 -62 235 -91 77 -29 190 -76 251 -104 61 -28
114 -51 118 -51 19 0 125 -79 253 -188 140 -120 229 -219 242 -270 10 -37 45
-41 66 -8 21 32 12 62 -43 143 -39 57 -82 101 -237 239 -165 146 -235 185
-635 351 -336 139 -324 136 -545 138 -287 3 -714 31 -731 48 -2 2 22 18 53 34
52 27 71 31 183 38 69 4 130 7 135 7 6 0 96 -4 200 -7 136 -5 225 -14 313 -31
68 -13 149 -24 180 -24 44 0 103 -16 259 -69 177 -59 212 -75 275 -121 95 -69
103 -74 238 -163 298 -194 598 -472 680 -630 28 -54 50 -68 77 -46 27 23 10
85 -51 173 -138 202 -351 392 -736 655 -74 50 -162 111 -195 134 -48 34 -102
56 -266 110 -175 58 -222 69 -315 77 -60 5 -127 15 -149 21 -22 6 -121 14
-220 19 -99 4 -214 11 -255 14 -41 3 -82 3 -90 1z"/>
<path d="M18548 19839 c-27 -15 -22 -42 13 -75 49 -47 108 -151 253 -444 161
-327 198 -436 247 -717 21 -124 37 -388 25 -419 -6 -15 -14 -6 -42 47 -37 70
-68 95 -103 84 -36 -11 -36 -46 2 -121 76 -152 98 -222 114 -364 14 -128 14
-167 -3 -425 -4 -56 4 -132 28 -285 35 -221 44 -399 28 -545 -6 -60 -13 -112
-15 -114 -3 -2 -23 13 -46 34 -52 47 -346 189 -449 216 -41 11 -76 22 -78 24
-10 9 112 25 197 25 110 0 135 13 129 67 -5 44 -52 55 -191 43 -62 -5 -137
-16 -167 -25 -30 -8 -83 -22 -117 -30 -34 -8 -95 -28 -135 -44 -40 -16 -105
-34 -143 -40 -160 -24 -245 -69 -368 -194 l-88 -89 -53 35 c-29 19 -86 52
-127 73 -70 35 -80 38 -182 41 -102 3 -172 -9 -253 -43 -7 -3 -20 28 -33 82
-12 47 -35 113 -52 147 -39 77 -120 162 -184 194 -27 14 -61 33 -75 43 -58 41
-261 141 -331 164 -42 13 -99 36 -128 50 -83 42 -252 113 -311 130 -136 39
-362 65 -420 47 -64 -19 -94 -72 -62 -111 17 -22 18 -22 70 -5 29 10 68 15 89
12 125 -15 257 -40 313 -59 62 -21 64 -22 35 -29 -158 -37 -207 -56 -491 -190
-84 -40 -150 -102 -174 -163 -7 -19 -15 -26 -28 -22 -9 3 -48 10 -87 16 -104
16 -252 48 -320 70 -33 10 -105 24 -160 30 -55 7 -122 16 -148 21 -26 5 -70 9
-97 9 -28 0 -50 4 -50 9 0 18 71 71 96 71 32 0 41 25 19 50 -32 35 -106 22
-158 -28 -34 -32 -179 -317 -228 -447 l-34 -90 -12 65 c-25 130 -44 194 -74
256 -20 41 -29 69 -24 83 10 33 258 191 299 191 8 0 19 -7 24 -16 15 -27 47
-13 50 23 4 44 -26 73 -76 73 -49 0 -218 -83 -308 -151 l-67 -50 -23 22 c-13
12 -24 28 -24 34 0 6 111 65 247 130 135 66 257 128 270 138 28 22 30 43 5 56
-14 7 -30 2 -66 -20 -26 -16 -90 -45 -142 -64 -90 -33 -308 -135 -366 -172
-27 -17 -27 -17 -60 19 -46 50 -67 58 -161 65 l-82 6 -75 -51 c-121 -80 -150
-117 -245 -310 -25 -51 -58 -137 -73 -190 -25 -90 -27 -109 -26 -282 1 -180 2
-188 33 -280 18 -52 44 -131 58 -175 14 -44 38 -102 54 -130 15 -27 37 -79 49
-114 11 -35 46 -110 76 -168 30 -57 54 -112 54 -122 0 -75 70 -130 205 -161
187 -44 316 -84 326 -101 15 -30 -10 -129 -62 -236 -27 -56 -49 -104 -49 -107
0 -3 -24 -56 -54 -120 l-54 -114 -34 7 c-63 15 -144 -5 -257 -60 -134 -67
-171 -93 -248 -171 -76 -78 -153 -185 -223 -311 -29 -54 -84 -134 -122 -179
-38 -45 -81 -102 -96 -127 -27 -48 -89 -125 -182 -227 -30 -33 -66 -80 -80
-103 -26 -45 -104 -107 -225 -181 -38 -23 -92 -57 -119 -76 -26 -19 -58 -34
-70 -34 -11 0 -68 -23 -126 -51 -58 -28 -130 -60 -160 -70 -66 -24 -248 -66
-322 -75 -49 -6 -131 -37 -265 -100 -28 -13 -57 -24 -63 -24 -10 0 -110 -40
-245 -99 -39 -16 -100 -36 -135 -44 -36 -8 -101 -29 -145 -47 -44 -18 -116
-43 -160 -56 -44 -13 -127 -48 -185 -78 -231 -119 -288 -147 -370 -185 -47
-22 -143 -74 -215 -116 -71 -42 -141 -81 -155 -87 -14 -5 -43 -29 -66 -53 -39
-42 -285 -219 -489 -352 -238 -155 -271 -180 -315 -234 -25 -31 -76 -78 -115
-105 -179 -122 -268 -183 -362 -246 -56 -38 -118 -89 -139 -116 -67 -83 -260
-269 -316 -305 -29 -19 -83 -48 -119 -64 -86 -39 -127 -77 -209 -193 -38 -53
-114 -145 -170 -204 -56 -60 -127 -147 -158 -193 -142 -212 -161 -246 -208
-388 -62 -185 -81 -228 -147 -322 -66 -93 -179 -302 -213 -391 -14 -36 -24
-84 -24 -115 -1 -57 -24 -131 -167 -532 -50 -137 -104 -277 -120 -310 -17 -33
-85 -215 -152 -404 -128 -363 -119 -330 -195 -766 -7 -44 -37 -169 -64 -277
-59 -228 -62 -259 -66 -583 -2 -178 -7 -262 -20 -325 -10 -47 -21 -161 -26
-255 -7 -142 -14 -196 -46 -330 -34 -147 -37 -173 -39 -325 -2 -124 -8 -190
-23 -265 -12 -55 -28 -143 -37 -195 -26 -160 -75 -478 -95 -617 -26 -176 -63
-359 -94 -467 -23 -77 -26 -106 -25 -230 1 -121 -4 -162 -30 -290 -26 -127
-31 -171 -31 -295 0 -102 -8 -197 -25 -316 -32 -219 -33 -371 -4 -481 19 -72
20 -92 13 -224 -17 -284 -6 -457 31 -500 7 -8 16 -35 20 -60 3 -25 10 -58 15
-75 15 -51 50 -356 50 -441 1 -43 5 -99 11 -124 5 -25 12 -62 16 -82 l6 -38
69 0 69 0 -15 27 c-29 54 -37 100 -46 253 -9 156 -20 255 -40 372 -6 35 -15
91 -19 124 -5 38 -18 74 -31 92 -31 42 -45 182 -31 321 17 168 14 305 -9 386
-27 96 -26 207 7 428 19 137 26 216 24 318 -1 119 3 157 30 290 27 131 32 178
33 309 1 130 5 166 23 220 24 73 66 279 88 433 41 288 107 690 137 837 17 80
22 143 23 265 1 148 4 174 42 345 33 151 42 212 46 330 4 80 14 183 22 230 12
59 19 181 24 395 l8 310 56 219 c31 121 73 316 93 435 21 131 49 256 69 316
85 260 211 606 240 665 34 68 244 645 277 760 10 35 18 86 18 113 0 28 9 70
22 100 41 95 150 291 198 358 66 91 89 139 149 318 30 88 70 181 93 219 82
135 184 270 272 363 51 53 116 132 145 175 80 117 125 159 217 204 44 21 104
56 132 78 60 45 237 217 300 291 43 50 95 89 407 298 94 63 177 124 185 136
44 64 108 117 244 203 206 129 537 362 584 410 21 21 74 59 117 83 44 24 117
66 163 93 46 28 133 72 193 98 60 27 140 65 177 86 141 79 202 106 347 156 83
27 162 57 178 64 15 8 53 19 84 25 31 6 117 37 192 69 75 31 161 66 191 75 30
10 100 39 155 65 66 31 121 49 160 54 106 12 334 73 416 112 43 20 81 35 83
33 5 -7 -23 -239 -38 -314 -8 -38 -27 -119 -41 -180 -25 -100 -28 -136 -35
-405 -5 -162 -6 -312 -3 -332 3 -20 0 -74 -7 -120 -7 -46 -14 -155 -15 -243
-2 -88 -11 -216 -20 -285 -10 -76 -15 -182 -14 -270 1 -80 -4 -170 -10 -200
-14 -65 -29 -264 -40 -510 l-8 -175 -52 -149 c-28 -82 -51 -159 -51 -171 0
-29 24 -49 84 -69 78 -25 159 -21 241 14 84 36 108 37 205 6 100 -31 300 -43
380 -21 115 30 338 95 410 118 104 35 215 57 280 57 30 0 91 9 135 21 44 11
97 25 118 30 21 5 81 28 135 51 179 76 230 65 406 -94 29 -26 72 -55 97 -63
24 -9 68 -32 99 -52 30 -20 71 -47 90 -60 45 -29 206 -186 244 -237 16 -21 58
-71 94 -110 35 -39 94 -116 130 -171 37 -55 71 -104 77 -110 51 -47 171 -313
190 -420 4 -22 14 -65 23 -95 9 -36 18 -133 23 -275 4 -121 13 -301 20 -400
15 -221 14 -337 -6 -422 -25 -106 -35 -268 -23 -352 9 -59 7 -99 -7 -215 -15
-115 -18 -204 -17 -491 1 -192 7 -403 14 -467 9 -90 9 -157 0 -290 -17 -243
-16 -290 8 -336 21 -39 36 -171 59 -507 17 -235 30 -353 51 -451 21 -98 30
-337 18 -479 -26 -299 -28 -438 -22 -1175 4 -426 8 -1126 9 -1555 1 -429 6
-826 10 -882 l7 -103 52 0 51 0 -3 732 c-2 403 -6 985 -10 1293 -11 902 -8
1456 8 1555 9 54 14 170 14 320 1 212 -1 243 -21 320 -22 82 -50 336 -39 347
3 3 8 -8 11 -23 4 -16 19 -60 34 -99 16 -38 36 -106 45 -150 10 -44 26 -118
36 -165 20 -91 37 -202 71 -450 22 -162 62 -367 77 -397 12 -24 38 -180 52
-318 6 -60 20 -182 31 -270 18 -146 18 -174 7 -315 -15 -181 -16 -347 -4 -630
7 -175 6 -215 -8 -273 -9 -38 -16 -94 -16 -126 0 -42 -8 -75 -27 -117 -25 -55
-27 -72 -34 -259 -5 -110 -8 -283 -9 -386 -2 -252 -12 -358 -43 -423 -14 -28
-31 -66 -37 -84 -7 -18 -26 -44 -42 -57 l-30 -25 80 0 79 0 36 84 c59 135 67
184 67 421 0 317 16 561 46 678 13 54 24 123 24 155 0 31 7 89 15 127 18 85
19 255 3 469 -9 128 -8 190 3 315 18 207 17 361 -3 501 -10 63 -22 162 -28
220 -15 148 -40 298 -57 345 -21 59 -48 198 -77 390 -35 229 -55 349 -71 415
-7 30 -13 73 -13 95 1 46 -32 179 -63 257 -11 29 -40 112 -64 183 -23 72 -56
164 -73 206 -17 42 -36 105 -42 140 -6 35 -20 94 -30 130 -25 84 -34 260 -22
417 6 73 6 153 1 195 -8 73 -23 628 -20 767 1 41 9 131 18 200 9 69 16 145 14
170 -8 183 -3 331 14 404 25 110 23 339 -5 631 -5 61 -10 174 -10 252 0 121
-4 158 -26 244 -21 81 -24 106 -15 125 6 14 15 62 21 107 10 84 83 415 120
542 42 147 60 281 60 449 0 89 -5 190 -10 226 -12 75 -76 214 -124 269 -36 40
-76 106 -76 124 0 7 11 33 25 59 13 25 35 75 48 109 14 35 72 162 131 283 58
120 106 221 106 224 0 3 14 36 31 73 l32 68 36 -27 c45 -33 112 -91 170 -145
48 -46 161 -194 161 -211 0 -6 11 -33 24 -61 13 -27 34 -79 47 -115 18 -50 41
-85 103 -156 174 -196 216 -275 265 -485 34 -149 101 -373 128 -427 74 -151
158 -151 259 1 64 96 62 95 53 40 -20 -119 -21 -164 -4 -297 14 -114 16 -154
7 -225 -6 -47 -11 -117 -10 -156 1 -38 -3 -128 -9 -200 -13 -167 -9 -1822 6
-2105 7 -113 16 -288 21 -390 5 -102 14 -252 20 -335 33 -473 40 -594 46 -730
3 -82 12 -195 21 -250 8 -55 16 -116 18 -135 2 -19 14 -111 28 -205 14 -93 31
-228 36 -300 13 -159 48 -462 61 -530 6 -27 17 -106 24 -175 8 -69 22 -165 30
-215 8 -49 24 -155 36 -235 22 -154 71 -425 95 -525 45 -183 80 -365 111 -565
32 -214 63 -399 85 -520 6 -30 21 -116 35 -190 13 -74 33 -196 44 -270 35
-251 60 -405 74 -455 8 -27 22 -88 30 -135 9 -47 33 -141 53 -210 l38 -125 63
-3 c34 -2 62 -1 62 1 0 3 -7 22 -16 43 -59 140 -154 582 -194 904 -6 47 -25
162 -42 255 -16 94 -36 208 -44 255 -8 47 -21 121 -29 165 -8 44 -22 125 -29
180 -32 218 -56 357 -91 515 -20 91 -43 199 -51 240 -8 41 -24 116 -34 165
-19 86 -33 177 -65 405 -9 58 -22 141 -29 185 -8 44 -17 109 -21 145 -3 36
-15 121 -25 190 -18 117 -45 365 -70 630 -5 63 -19 158 -30 210 -11 52 -20
118 -20 145 0 28 -7 86 -14 130 -8 44 -17 125 -20 180 -21 341 -47 759 -56
875 -6 74 -15 225 -20 335 -6 110 -15 288 -21 395 -16 307 -12 2011 5 2141 8
57 17 210 21 339 l6 235 56 170 c31 94 64 181 74 195 9 14 29 62 43 105 36
110 92 193 208 306 77 76 111 101 153 117 l55 20 177 -59 c221 -73 274 -107
328 -207 20 -37 42 -87 50 -112 38 -131 99 -234 153 -258 32 -14 120 -71 283
-178 19 -13 40 -24 46 -24 6 0 22 -9 36 -20 15 -12 57 -32 94 -45 37 -13 90
-35 117 -49 27 -14 60 -26 72 -26 38 0 74 22 81 48 6 26 3 32 -88 197 -27 49
-58 114 -69 144 -10 29 -30 70 -44 90 -14 20 -39 81 -56 136 -18 55 -47 134
-65 175 -34 76 -91 214 -126 305 -11 28 -33 97 -49 155 -16 58 -38 125 -49
150 -11 25 -26 72 -34 105 -19 76 -180 502 -218 578 -34 65 -131 319 -149 390
-10 37 -45 120 -77 185 -112 225 -149 309 -159 362 -3 19 -14 49 -24 65 -31
52 -43 146 -21 168 8 8 22 6 48 -7 20 -10 118 -46 218 -81 244 -86 337 -135
439 -233 71 -68 91 -81 160 -106 44 -15 112 -49 150 -76 39 -26 139 -82 221
-125 83 -42 186 -97 230 -120 44 -24 116 -58 160 -75 110 -43 236 -111 292
-158 27 -22 76 -55 110 -75 34 -19 101 -70 150 -112 85 -74 151 -121 223 -163
144 -82 197 -123 373 -288 116 -110 230 -207 296 -253 58 -40 140 -106 181
-146 41 -39 109 -94 150 -120 95 -60 112 -75 229 -215 181 -215 247 -319 300
-479 28 -82 31 -105 33 -229 1 -75 -2 -192 -6 -259 -10 -140 10 -298 49 -393
12 -30 28 -80 35 -110 7 -30 25 -77 40 -105 16 -27 44 -93 63 -145 19 -52 52
-124 74 -160 22 -36 59 -108 83 -160 24 -52 52 -108 61 -125 10 -16 32 -79 49
-140 18 -60 40 -126 51 -147 32 -63 24 -177 -28 -415 -13 -57 -14 -78 -5 -98
7 -14 15 -51 18 -83 8 -81 21 -119 65 -189 22 -35 48 -85 58 -112 11 -26 36
-80 55 -118 20 -39 36 -76 36 -82 0 -25 53 -169 86 -235 38 -75 64 -140 88
-228 19 -66 68 -179 95 -217 11 -15 59 -106 106 -201 48 -96 105 -200 127
-232 35 -52 42 -73 59 -175 11 -64 33 -157 49 -207 17 -50 35 -131 40 -181 6
-49 15 -130 21 -180 11 -97 -3 -448 -22 -547 -5 -29 -14 -136 -20 -238 -5
-102 -16 -236 -25 -297 -18 -135 -12 -185 33 -313 19 -52 50 -146 69 -209 41
-132 56 -164 117 -248 25 -34 56 -81 68 -105 12 -24 27 -50 34 -58 17 -21 112
-239 142 -325 13 -38 35 -116 48 -173 19 -77 41 -133 90 -227 36 -69 65 -131
65 -139 0 -7 18 -58 41 -112 36 -87 42 -112 49 -214 12 -162 19 -214 40 -300
10 -41 24 -109 30 -150 7 -41 20 -95 30 -120 22 -54 140 -441 140 -457 0 -7
11 -47 24 -89 28 -88 74 -168 158 -272 32 -40 58 -80 58 -88 0 -12 11 -14 48
-12 43 3 47 5 50 31 4 30 -25 78 -108 182 -54 67 -96 154 -116 240 -17 72
-116 416 -136 470 -24 69 -37 116 -58 225 -33 170 -51 310 -45 352 6 47 -17
148 -53 230 -16 34 -39 95 -52 133 -13 39 -45 109 -72 157 -36 65 -56 116 -78
205 -42 171 -158 465 -210 530 -11 14 -20 30 -20 36 0 6 -27 48 -61 94 -70 96
-93 144 -114 239 -9 38 -27 94 -40 124 -63 148 -76 234 -55 374 7 45 18 176
26 291 7 116 18 254 24 308 16 147 17 445 2 595 -8 79 -23 165 -38 215 -29 93
-56 208 -74 315 -10 59 -21 87 -62 150 -28 42 -84 145 -124 227 -40 83 -85
168 -100 190 -37 55 -65 121 -104 245 -17 58 -52 145 -76 195 -25 49 -58 135
-75 190 -17 55 -42 120 -56 143 -14 24 -37 74 -53 112 -15 37 -44 93 -65 125
-30 47 -38 71 -45 136 -5 44 -12 84 -16 90 -3 6 -1 38 5 72 6 34 17 103 26
152 8 50 16 128 17 175 2 71 -1 92 -20 127 -12 23 -36 90 -53 149 -30 104
-159 387 -212 465 -14 20 -41 81 -62 135 -20 55 -47 119 -60 144 -22 45 -78
203 -94 270 -28 114 -35 214 -23 334 31 308 4 457 -122 686 -49 87 -95 150
-232 315 -107 130 -150 170 -247 232 -40 25 -110 82 -157 126 -47 44 -126 107
-176 141 -54 36 -169 134 -282 241 -186 174 -228 206 -432 329 -41 24 -120 83
-175 131 -55 47 -129 102 -164 122 -35 19 -80 50 -100 67 -62 55 -181 119
-329 176 -39 16 -107 48 -150 72 -42 24 -142 77 -222 118 -80 40 -179 97 -221
125 -42 28 -105 60 -140 70 -53 16 -76 31 -150 101 -110 102 -219 159 -471
245 -162 55 -191 69 -257 118 -69 52 -72 56 -50 64 13 5 74 34 136 64 108 52
116 58 216 166 144 155 218 246 252 309 16 29 75 125 132 212 57 87 103 165
103 171 0 7 31 75 69 151 37 77 76 166 86 199 9 33 41 122 70 197 30 75 61
163 70 195 35 123 66 217 94 282 15 37 38 108 50 158 11 50 28 110 37 134 8
24 21 69 28 99 8 30 24 91 36 135 32 115 50 205 50 246 0 41 20 94 55 148 13
20 40 77 59 127 45 118 54 211 31 349 -9 55 -20 129 -25 165 -10 74 -25 120
-53 169 -17 28 -19 38 -9 65 7 18 19 79 28 137 19 129 14 463 -9 579 -31 154
-38 231 -42 475 -4 225 -8 287 -31 418 -5 32 -3 41 14 53 76 53 47 529 -52
862 -30 99 -98 259 -146 342 -20 36 -69 135 -109 220 -79 172 -169 313 -220
347 -38 26 -39 26 -63 12z m-4818 -2796 c61 -54 110 -104 110 -111 0 -7 18
-48 40 -91 50 -100 98 -332 115 -551 6 -75 3 -99 -25 -210 -17 -69 -36 -145
-42 -169 l-10 -43 -24 43 c-40 68 -76 90 -189 114 -90 18 -107 30 -143 100
-22 43 -27 66 -30 160 -5 136 18 248 77 387 48 112 51 144 16 160 -39 18 -70
-11 -116 -110 -87 -187 -118 -441 -72 -587 25 -77 81 -159 128 -186 17 -10 66
-25 110 -34 92 -19 114 -35 146 -108 20 -45 23 -71 24 -187 2 -89 7 -150 17
-180 31 -93 41 -130 36 -135 -6 -6 -338 77 -364 92 -12 7 -38 53 -64 112 -23
55 -53 110 -66 122 -13 13 -24 30 -24 38 -1 27 -58 180 -78 209 -11 15 -32 66
-47 112 -15 47 -40 123 -56 170 -27 79 -29 97 -31 255 -4 207 11 268 105 448
75 143 102 177 186 232 54 36 75 44 114 44 47 1 50 -1 157 -96z m2477 54 c99
-26 296 -193 348 -297 36 -71 93 -87 118 -33 9 20 5 34 -24 91 l-35 67 62 -32
c67 -36 131 -99 162 -160 11 -21 29 -72 40 -113 60 -223 65 -303 31 -441 -27
-109 -75 -198 -148 -280 -79 -87 -324 -253 -441 -298 l-85 -33 -155 12 c-193
16 -255 38 -380 139 -129 104 -232 226 -293 348 -78 155 -114 448 -79 641 24
130 82 190 247 258 50 20 104 45 120 54 35 21 197 76 241 83 66 10 223 6 271
-6z m-1538 -258 c69 -12 160 -32 201 -45 41 -13 113 -29 160 -35 47 -6 109
-15 138 -21 53 -11 53 -12 45 -42 -16 -62 -7 -316 16 -440 34 -187 92 -303
229 -462 161 -185 356 -307 508 -319 258 -19 278 -19 350 5 93 30 194 85 328
178 133 92 171 125 235 206 111 140 178 350 164 514 l-6 70 34 10 c71 21 97
24 193 23 112 -2 131 -9 259 -94 56 -38 75 -56 71 -67 -4 -8 -22 -60 -41 -115
-60 -178 -80 -360 -53 -490 13 -65 75 -193 121 -252 16 -20 44 -61 61 -92 44
-76 190 -222 257 -256 203 -103 493 -129 704 -64 148 45 200 75 306 173 24 23
41 34 38 25 -3 -9 -18 -63 -32 -120 -15 -57 -42 -153 -60 -214 -18 -60 -36
-128 -40 -149 -3 -22 -24 -83 -45 -135 -21 -53 -51 -139 -65 -191 -15 -52 -48
-149 -73 -215 -25 -66 -62 -167 -82 -225 -21 -58 -59 -150 -85 -205 -26 -55
-58 -126 -71 -159 -13 -32 -34 -73 -47 -90 -29 -37 -159 -242 -195 -306 -34
-62 -45 -75 -192 -236 -125 -136 -133 -143 -222 -187 -51 -24 -111 -50 -133
-57 -57 -18 -147 -65 -182 -94 -59 -50 -202 -71 -468 -71 -182 0 -331 18 -445
53 -129 39 -312 108 -378 141 -33 17 -99 46 -146 66 -48 20 -133 61 -189 92
-56 31 -120 66 -142 77 -321 174 -452 272 -695 522 -237 244 -250 262 -411
579 -34 66 -77 144 -95 172 -19 29 -45 81 -60 115 -31 75 -193 401 -270 543
-59 110 -57 104 -91 192 -65 168 -82 244 -84 369 -1 111 9 201 31 299 5 22 25
105 44 185 19 80 40 192 46 250 13 123 85 358 158 513 l45 97 115 0 c70 0 164
-8 241 -21z m3886 -232 c50 -14 158 -57 240 -96 266 -127 311 -197 365 -566
22 -150 -19 -285 -135 -446 -168 -232 -254 -299 -461 -355 -99 -26 -311 -16
-434 20 -130 39 -161 56 -244 139 -76 77 -208 265 -252 361 -67 147 -35 384
93 681 35 81 46 96 108 148 37 31 70 55 72 53 2 -2 -8 -23 -22 -47 -28 -49
-32 -100 -10 -119 23 -19 48 -7 70 34 44 86 172 198 247 217 66 16 266 4 363
-24z m-4497 -1694 c21 -43 55 -106 75 -141 42 -72 153 -300 202 -412 18 -41
48 -100 67 -130 19 -30 60 -105 91 -167 31 -62 67 -130 80 -151 14 -21 39 -66
56 -100 37 -73 108 -157 290 -344 213 -220 380 -353 581 -464 260 -143 402
-219 455 -241 33 -14 116 -51 186 -83 69 -32 141 -63 160 -68 18 -6 88 -29
154 -52 130 -45 224 -61 488 -82 86 -6 157 -14 157 -17 -1 -30 -83 -309 -99
-334 -25 -39 -41 -73 -75 -155 -56 -138 -180 -266 -332 -346 -60 -31 -129 -71
-154 -88 -98 -68 -187 -138 -220 -173 -36 -38 -64 -59 -175 -130 -35 -22 -94
-63 -132 -92 -37 -29 -88 -67 -112 -85 l-44 -33 -51 57 c-28 30 -62 61 -76 68
-33 16 -102 66 -154 111 -58 49 -134 103 -181 127 -22 11 -76 51 -120 89 -123
105 -211 172 -292 219 -41 24 -102 68 -136 97 -34 29 -85 68 -112 86 -87 59
-369 355 -442 464 -35 54 -76 105 -89 114 -14 9 -41 41 -62 72 -44 67 -111
158 -165 224 -33 39 -43 63 -61 145 -12 53 -30 111 -38 127 -9 17 -19 53 -24
80 -4 27 -13 64 -20 81 -28 67 -36 172 -34 468 1 261 3 311 21 385 33 142 38
171 49 291 13 128 38 219 82 299 33 60 124 266 151 344 4 9 9 17 12 17 3 0 23
-35 43 -77z m-463 -450 c-4 -10 -16 -47 -26 -83 -10 -36 -50 -159 -89 -275
-78 -232 -93 -316 -110 -595 -5 -85 -14 -173 -19 -195 -14 -53 -15 -635 -1
-885 15 -281 21 -373 26 -381 2 -4 8 -40 14 -80 12 -82 51 -210 87 -282 13
-26 31 -75 39 -108 20 -77 56 -173 93 -247 15 -31 38 -88 50 -127 13 -38 40
-106 61 -150 21 -44 52 -111 70 -150 17 -38 42 -92 57 -120 14 -27 44 -86 67
-130 48 -94 159 -274 222 -360 24 -33 57 -82 74 -110 16 -27 48 -72 69 -100
113 -141 208 -310 236 -420 9 -33 23 -71 31 -83 19 -29 56 -133 49 -140 -2 -2
-44 35 -93 84 -87 87 -232 189 -334 233 -24 10 -56 33 -73 51 -16 17 -43 39
-59 47 -15 8 -48 33 -72 55 -38 35 -54 42 -120 53 -67 12 -83 12 -142 -4 -37
-10 -98 -32 -137 -48 -100 -44 -244 -81 -360 -92 -124 -12 -264 -42 -330 -71
-27 -12 -108 -38 -180 -57 -71 -20 -151 -42 -178 -49 -61 -17 -255 -2 -342 26
-87 29 -169 26 -241 -7 -74 -33 -161 -43 -170 -19 -4 9 13 71 37 139 43 120
44 124 50 292 10 244 26 445 44 537 11 58 13 111 9 192 -5 82 -1 158 15 292
12 99 21 236 21 305 0 68 4 150 10 182 5 32 10 196 10 365 2 331 8 390 61 607
19 79 31 158 35 230 3 61 10 136 16 168 10 52 14 59 45 72 18 8 66 36 106 63
39 27 111 74 158 105 93 62 140 105 191 178 18 26 77 97 130 158 53 61 104
126 113 144 8 18 45 69 81 112 83 100 94 116 139 200 82 153 218 325 300 381
125 85 279 142 260 97z m46 -274 c-48 -207 -71 -386 -72 -544 -1 -107 29 -393
47 -455 8 -30 22 -83 30 -118 7 -34 20 -75 28 -90 8 -15 23 -71 35 -126 11
-54 26 -106 33 -115 7 -9 31 -38 54 -66 42 -51 66 -84 155 -213 27 -40 59 -78
70 -85 11 -6 49 -55 84 -107 77 -113 378 -426 470 -488 33 -22 85 -62 116 -89
31 -28 88 -67 125 -88 72 -40 144 -95 302 -228 51 -43 105 -83 120 -88 33 -13
152 -97 152 -108 0 -5 16 -19 34 -32 30 -20 33 -26 21 -39 -16 -18 -309 -604
-320 -640 -13 -43 -65 -143 -111 -210 -61 -92 -285 -317 -366 -369 -37 -24
-70 -43 -74 -43 -8 0 -26 30 -49 82 -14 32 -60 98 -160 231 -23 30 -53 74 -68
99 -15 25 -47 72 -71 105 -52 71 -166 254 -193 310 -11 22 -47 92 -79 155 -33
63 -72 147 -88 185 -16 39 -38 85 -50 104 -11 19 -34 76 -52 126 -17 49 -40
108 -51 130 -33 65 -80 187 -87 230 -4 22 -23 74 -41 115 -68 154 -89 246
-106 465 -17 215 -18 262 -25 663 -5 309 -3 388 10 465 8 50 18 139 21 197 14
250 27 325 98 542 60 182 78 226 58 137z m3912 -1675 c14 -91 48 -229 68 -273
10 -24 19 -50 19 -58 0 -27 50 -146 132 -313 44 -91 89 -194 98 -230 18 -66
129 -354 154 -400 19 -34 86 -205 146 -375 18 -49 40 -108 50 -130 10 -22 21
-60 25 -85 4 -25 16 -61 26 -81 10 -20 33 -89 53 -155 45 -157 80 -248 176
-464 21 -47 52 -132 70 -190 17 -57 42 -117 55 -132 13 -15 31 -51 41 -80 9
-29 33 -81 52 -115 18 -35 29 -63 24 -63 -41 0 -214 93 -367 198 -44 30 -94
61 -113 69 -28 11 -40 27 -68 91 -20 42 -39 96 -43 119 -5 24 -20 60 -34 81
-14 20 -36 59 -48 85 -19 38 -39 58 -97 98 -61 41 -107 61 -271 114 -109 36
-210 65 -225 65 -15 0 -43 -8 -64 -19 -20 -10 -48 -21 -62 -24 -41 -10 -310
-280 -310 -311 0 -5 -8 -20 -19 -34 -10 -15 -30 -64 -45 -109 -15 -46 -35 -92
-45 -104 -17 -22 -18 -21 -10 32 4 30 8 100 8 156 1 119 15 221 42 314 10 36
19 79 19 96 0 17 14 70 30 117 17 47 35 109 40 138 5 29 18 87 29 128 38 147
60 257 75 370 24 178 39 402 31 458 -5 37 0 83 18 174 62 302 60 273 48 523
-6 127 -13 241 -17 255 -5 25 -3 26 73 44 43 10 94 22 113 27 19 5 49 17 65
28 17 11 34 18 40 17 5 -1 13 -25 18 -52z m-407 -604 c-8 -41 -25 -124 -38
-185 -16 -75 -23 -147 -24 -225 -1 -198 -41 -571 -69 -649 -8 -24 -15 -55 -15
-70 0 -14 -11 -62 -25 -105 -14 -43 -25 -91 -25 -105 0 -15 -16 -74 -36 -132
-19 -57 -39 -126 -44 -154 -17 -106 -33 -174 -66 -281 -19 -61 -34 -125 -34
-141 0 -95 -160 -428 -190 -396 -15 15 -101 276 -131 393 -58 228 -86 296
-162 400 -39 52 -100 129 -137 170 -48 54 -75 95 -95 145 -15 39 -33 81 -40
95 -6 14 -22 46 -34 71 -12 25 -51 83 -87 128 -35 44 -64 83 -64 86 0 6 197
145 206 145 5 0 24 10 43 23 20 13 68 44 106 69 39 26 86 63 105 83 69 73 261
209 347 247 200 87 344 264 484 592 l34 79 3 -104 c2 -66 -2 -131 -12 -179z
m-2062 -1787 c3 -10 21 -34 39 -53 17 -20 49 -69 69 -110 42 -84 42 -80 33
-375 -4 -158 -5 -161 -50 -295 -38 -112 -47 -151 -51 -230 -4 -96 -41 -310
-53 -310 -4 0 -22 30 -40 68 -18 37 -52 96 -76 132 -87 132 -165 287 -210 420
-50 146 -71 204 -104 290 -11 30 -21 60 -21 67 0 6 17 22 37 34 110 68 215
162 332 297 40 45 76 82 81 82 5 0 11 -8 14 -17z"/>
<path d="M14775 19209 c-60 -9 -171 -26 -246 -37 -105 -15 -154 -27 -215 -55
-43 -19 -102 -45 -131 -57 -32 -13 -70 -42 -98 -71 -38 -41 -46 -55 -43 -82 5
-48 38 -48 96 1 41 34 226 128 287 146 11 3 68 13 125 21 58 8 152 21 210 30
271 42 945 11 1212 -55 141 -35 168 -46 265 -107 81 -50 105 -50 111 -2 9 77
-279 207 -528 239 -350 45 -845 59 -1045 29z"/>
<path d="M14895 19010 c-182 -7 -197 -9 -365 -53 -96 -25 -230 -66 -297 -90
-101 -37 -135 -54 -193 -101 -39 -31 -77 -68 -86 -81 -20 -30 -15 -89 7 -93 9
-2 61 31 115 72 114 86 184 114 475 189 186 48 153 45 594 63 137 6 181 3 305
-15 218 -34 277 -50 320 -87 23 -20 42 -2 38 37 -6 62 -68 89 -322 139 -163
33 -207 34 -591 20z"/>
<path d="M14970 18804 c-14 -2 -108 -10 -210 -19 -245 -21 -307 -33 -485 -95
-212 -73 -308 -121 -345 -172 -23 -32 -27 -44 -19 -59 13 -24 34 -24 74 1 29
18 376 151 481 185 49 16 233 39 242 31 3 -3 -3 -6 -14 -6 -65 0 -479 -132
-609 -194 -128 -60 -167 -115 -110 -152 25 -16 28 -15 123 34 105 54 374 146
548 188 127 30 360 41 527 24 113 -11 137 -5 137 39 0 63 -64 79 -340 82
l-155 2 105 12 c58 7 170 13 250 14 125 0 151 -2 189 -20 50 -22 71 -19 71 10
0 31 -65 77 -127 90 -50 10 -265 13 -333 5z"/>
<path d="M14880 18553 c-139 -24 -601 -141 -668 -168 -66 -28 -139 -77 -156
-105 -23 -41 -21 -112 5 -136 25 -23 53 -9 57 29 7 62 92 103 375 187 375 110
528 139 583 110 21 -12 27 -11 40 2 23 23 8 57 -32 74 -31 13 -145 17 -204 7z"/>
<path d="M14715 18321 c-91 -28 -130 -44 -255 -104 -63 -30 -165 -71 -225 -90
-137 -43 -223 -85 -269 -133 -57 -59 -81 -125 -54 -152 21 -21 44 -13 76 27
48 59 138 114 256 155 59 20 183 74 274 120 184 92 279 126 352 126 59 0 91
23 66 48 -23 24 -149 26 -221 3z"/>
<path d="M14665 18086 c-49 -18 -230 -103 -402 -189 -338 -171 -373 -195 -373
-262 0 -19 -4 -35 -9 -35 -5 0 -35 -23 -65 -51 -59 -53 -72 -93 -42 -118 24
-20 80 -9 91 17 20 46 528 321 690 373 108 34 115 38 115 53 0 39 -72 43 -184
10 -27 -8 -51 -12 -53 -10 -6 6 154 88 279 144 59 26 110 52 112 59 7 18 -22
43 -47 43 -12 -1 -62 -16 -112 -34z"/>
<path d="M14370 17626 c-188 -53 -526 -247 -581 -334 -28 -44 -38 -95 -21
-106 9 -5 126 71 206 134 108 84 409 236 493 248 39 6 48 11 48 27 0 22 -38
45 -75 44 -14 0 -45 -6 -70 -13z"/>
<path d="M15585 10869 c-100 -52 -158 -154 -159 -276 -1 -77 12 -106 68 -147
59 -45 175 -13 235 63 47 59 64 119 59 206 -6 86 -31 135 -82 159 -45 21 -73
20 -121 -5z m83 -114 c29 -64 -2 -169 -60 -205 -41 -25 -43 -25 -69 1 -17 17
-20 29 -16 63 9 61 41 125 73 147 39 26 59 24 72 -6z"/>
<path d="M15579 9743 c-66 -34 -78 -45 -113 -102 -36 -58 -40 -71 -43 -145 -3
-71 -1 -86 19 -121 13 -22 49 -58 82 -80 53 -37 64 -40 135 -43 76 -4 79 -3
115 28 48 43 64 75 82 168 29 151 -15 264 -121 313 -56 26 -72 24 -156 -18z
m149 -113 c37 -55 27 -209 -16 -253 -42 -41 -154 -10 -182 51 -26 58 -5 134
55 200 54 61 102 62 143 2z"/>
<path d="M20927 7872 c-20 -22 -74 -270 -82 -374 -15 -201 -96 -648 -128 -713
-11 -22 -28 -67 -38 -100 -26 -93 -110 -324 -149 -410 -10 -22 -21 -60 -25
-85 -4 -25 -16 -67 -26 -93 -11 -26 -19 -56 -19 -66 0 -10 -6 -24 -14 -30 -13
-11 -287 -74 -381 -88 -22 -3 -107 -28 -189 -55 -197 -64 -582 -137 -836 -158
-52 -5 -144 -13 -205 -19 -60 -6 -166 -15 -235 -21 -191 -17 -264 -28 -395
-59 -66 -16 -147 -34 -180 -41 -117 -24 -279 -71 -332 -97 -68 -32 -80 -54
-65 -125 35 -164 53 -232 82 -306 17 -45 42 -134 55 -198 14 -64 36 -140 49
-170 28 -61 80 -239 97 -329 6 -33 23 -89 38 -125 16 -36 38 -109 50 -163 11
-54 37 -140 55 -190 19 -51 40 -112 46 -137 26 -98 189 -389 244 -437 47 -40
82 -32 146 37 51 55 59 60 98 60 47 0 49 -4 32 -75 -7 -29 -5 -57 5 -100 81
-347 117 -487 160 -625 19 -58 39 -130 45 -160 6 -30 24 -95 40 -145 16 -49
32 -110 35 -135 7 -47 45 -215 70 -310 24 -89 47 -200 56 -275 5 -39 15 -91
24 -115 9 -24 22 -81 30 -125 8 -44 22 -118 30 -165 28 -147 34 -191 49 -348
9 -84 21 -162 27 -174 7 -13 20 -53 30 -91 38 -150 135 -222 221 -163 21 14
46 30 57 36 20 10 20 9 7 -27 -8 -21 -50 -114 -95 -207 -45 -92 -81 -170 -81
-173 0 -2 27 -3 61 -1 69 3 58 -10 149 183 74 157 95 215 119 340 12 61 28
128 36 150 7 22 19 60 25 85 18 74 90 261 122 319 23 41 41 107 75 265 53 250
65 364 68 671 1 127 3 304 5 395 1 91 -1 257 -4 370 -7 208 -6 227 34 490 11
69 22 144 25 167 8 51 19 61 103 89 109 36 243 89 307 121 33 17 94 45 135 62
41 17 125 61 185 98 61 36 142 83 181 103 39 19 95 56 123 80 137 117 131 110
146 185 21 113 14 186 -29 289 -20 49 -52 110 -69 134 -18 25 -58 84 -91 131
-32 47 -88 127 -125 176 -67 89 -138 217 -205 370 -32 74 -65 184 -87 295 -6
25 -16 74 -24 110 -8 36 -15 129 -16 210 -2 169 13 235 100 453 28 70 51 133
51 140 0 7 13 44 30 82 16 39 30 79 30 90 0 11 12 45 26 75 28 60 104 400 104
465 0 22 5 56 10 75 6 19 15 87 21 150 5 63 24 186 41 273 29 152 30 159 13
177 -23 25 -57 26 -78 2z m-442 -2211 c8 -25 15 -59 15 -77 0 -17 7 -51 15
-75 9 -24 23 -75 32 -114 23 -102 169 -427 218 -485 33 -39 181 -244 195 -270
7 -12 28 -43 48 -69 19 -25 52 -83 74 -129 41 -89 49 -151 24 -200 -7 -15 -16
-43 -20 -63 -8 -47 -100 -129 -200 -179 -39 -20 -114 -62 -166 -95 -52 -32
-129 -73 -170 -90 -42 -18 -105 -47 -140 -65 -82 -42 -319 -130 -349 -130 -9
0 -29 -7 -46 -16 -17 -10 -71 -20 -125 -25 -52 -4 -115 -15 -139 -23 -58 -21
-246 -40 -346 -35 -225 11 -544 -4 -606 -29 -15 -6 -75 -8 -150 -5 -143 6
-185 -5 -215 -56 -24 -41 -44 -36 -72 19 -13 25 -30 52 -37 60 -23 27 -103
195 -120 253 -9 32 -28 85 -41 118 -14 34 -39 118 -55 188 -17 69 -41 150 -54
179 -13 29 -29 79 -35 112 -17 93 -75 291 -99 338 -12 24 -31 89 -41 143 -11
55 -36 146 -56 202 -38 109 -87 304 -80 323 2 6 85 30 183 53 98 24 233 56
299 72 67 16 168 34 225 39 57 6 132 15 165 20 34 6 92 10 130 10 38 0 94 4
125 9 31 5 105 12 165 16 60 3 132 10 159 15 28 5 73 11 100 15 69 8 351 62
455 86 194 45 364 90 398 105 20 9 98 29 172 44 l135 28 8 -87 c4 -47 14 -106
22 -130z m-535 -2200 c0 -5 -12 -58 -26 -118 -14 -59 -31 -148 -37 -198 -10
-78 -16 -403 -10 -590 3 -120 -5 -732 -12 -830 -9 -138 -89 -524 -122 -588
-63 -125 -129 -318 -173 -502 -10 -44 -25 -82 -32 -84 -7 -2 -46 -21 -87 -42
-40 -21 -77 -37 -81 -34 -3 2 -14 21 -22 42 -40 96 -61 187 -74 323 -8 80 -18
168 -24 195 -5 28 -16 88 -24 135 -36 205 -46 258 -60 297 -8 22 -17 67 -21
99 -4 33 -13 84 -20 114 -8 30 -26 109 -41 175 -14 66 -33 142 -40 169 -8 28
-21 90 -29 139 -9 48 -25 111 -36 138 -10 28 -28 93 -40 145 -11 52 -29 120
-41 152 -43 122 -168 635 -168 691 0 63 9 81 41 81 16 0 46 6 66 14 55 21 152
27 368 25 105 -2 215 -3 245 -3 83 0 285 22 317 35 15 7 60 15 98 19 39 4 73
8 78 9 4 0 7 -3 7 -8z"/>
<path d="M15488 6677 c-88 -41 -141 -154 -141 -303 0 -103 19 -156 62 -178 90
-46 180 -44 253 4 24 16 62 58 87 94 36 53 45 77 54 140 11 73 10 77 -18 136
-31 66 -65 103 -108 119 -46 18 -137 12 -189 -12z m164 -104 c39 -45 50 -82
39 -135 -25 -115 -116 -187 -195 -154 l-36 15 0 83 c0 89 19 147 59 187 27 27
110 30 133 4z"/>
<path d="M9638 6600 c-34 -20 -41 -74 -32 -249 4 -91 8 -193 10 -226 10 -322
18 -473 31 -545 8 -47 19 -157 23 -245 5 -88 13 -187 20 -220 6 -33 13 -118
16 -190 3 -81 11 -146 21 -173 12 -33 15 -64 10 -138 -8 -112 18 -288 59 -399
22 -61 26 -94 34 -267 7 -141 14 -208 25 -235 9 -21 28 -81 42 -133 23 -84 27
-116 29 -271 1 -112 6 -185 14 -199 6 -12 18 -66 25 -120 8 -54 26 -129 41
-166 24 -59 41 -82 125 -164 57 -56 125 -136 165 -194 37 -55 84 -122 105
-150 51 -67 76 -136 90 -254 12 -91 11 -107 -10 -213 -12 -63 -31 -132 -42
-153 -11 -22 -32 -75 -45 -119 -14 -43 -34 -93 -45 -110 -10 -18 -19 -39 -19
-47 0 -8 -11 -35 -24 -60 -27 -51 -46 -131 -46 -191 0 -48 44 -231 66 -276 11
-20 37 -43 73 -63 53 -29 72 -43 201 -142 30 -23 105 -92 165 -153 61 -60 131
-126 155 -147 89 -72 195 -181 215 -219 11 -21 35 -68 53 -104 l33 -65 49 0
c71 0 71 15 3 150 -50 100 -69 126 -143 199 -47 46 -107 101 -133 122 -26 21
-83 75 -125 120 -77 82 -211 199 -267 234 -16 10 -42 30 -58 44 -15 14 -48 36
-74 50 -40 22 -49 33 -60 70 -7 25 -11 47 -8 49 3 3 33 -10 67 -28 155 -83
153 -83 281 -93 67 -5 165 -9 217 -7 167 3 434 -44 517 -91 57 -33 150 -58
215 -59 21 0 127 -19 235 -42 145 -30 234 -43 333 -48 133 -7 180 -13 390 -49
58 -10 123 -16 145 -14 36 4 551 -97 577 -113 5 -3 51 -17 101 -30 51 -14 115
-31 143 -38 28 -7 59 -18 70 -24 10 -5 78 -22 149 -36 188 -38 221 -29 273 75
32 65 82 268 82 335 0 19 7 65 15 102 16 73 30 175 46 352 6 63 19 155 29 204
11 49 17 93 14 97 -3 5 2 64 11 133 37 305 55 708 56 1269 l1 247 70 93 c39
50 90 115 113 142 111 134 138 220 95 305 -18 36 -22 61 -23 139 0 53 6 128
13 166 13 74 12 89 -14 280 -9 66 -18 197 -20 290 -3 145 -8 191 -35 315 -18
80 -36 188 -41 242 -15 157 -44 199 -125 177 -53 -15 -152 6 -250 53 -44 21
-87 38 -96 38 -30 0 -200 59 -229 80 -20 14 -94 35 -218 62 l-187 40 -235 -10
c-237 -11 -317 -6 -375 25 -11 6 -40 14 -65 18 -53 9 -72 18 -122 58 -63 50
-347 127 -470 127 -35 0 -157 18 -273 39 -115 22 -240 44 -276 49 -83 12 -218
-2 -319 -33 -41 -13 -104 -27 -140 -30 -36 -4 -86 -16 -112 -27 -26 -11 -51
-17 -56 -14 -5 3 -31 -1 -58 -8 -27 -8 -70 -17 -96 -21 -25 -3 -88 -26 -138
-50 -133 -65 -268 -100 -445 -114 -60 -5 -123 -14 -138 -20 -41 -16 -104 -14
-119 4 -32 39 -41 45 -58 45 -10 0 -31 -10 -45 -22 l-26 -23 11 -100 c6 -55
15 -131 20 -170 5 -38 12 -117 16 -175 3 -58 14 -155 25 -216 24 -137 50 -456
48 -584 -1 -52 3 -114 10 -138 6 -23 11 -59 10 -80 -5 -71 40 -251 84 -337 91
-180 145 -233 261 -257 55 -12 55 -13 61 -52 7 -44 0 -513 -11 -789 l-7 -168
-39 61 c-22 33 -75 93 -119 133 -105 96 -135 152 -150 283 -7 54 -18 111 -26
126 -9 19 -13 72 -13 181 0 138 -3 166 -29 268 -16 63 -37 134 -46 159 -11 31
-19 105 -25 241 -7 161 -12 205 -30 250 -37 96 -60 242 -60 386 0 80 -5 143
-12 160 -7 15 -15 87 -19 158 -3 72 -12 159 -19 195 -6 36 -15 139 -20 230 -4
91 -13 188 -19 215 -6 28 -18 205 -26 394 -8 190 -22 383 -30 430 -8 47 -15
109 -15 137 0 27 -5 55 -12 62 -14 14 -18 14 -40 2z m2032 -805 c25 -2 120
-19 213 -39 96 -21 196 -36 235 -36 136 -1 374 -68 472 -135 41 -27 82 -46
110 -50 25 -4 65 -15 90 -25 98 -38 167 -43 393 -30 l212 12 175 -36 c128 -27
185 -44 214 -62 36 -25 58 -32 206 -74 36 -10 91 -30 122 -44 76 -36 187 -66
243 -66 48 0 72 -23 60 -59 -5 -17 26 -191 61 -336 10 -43 16 -106 15 -163 -2
-138 16 -382 35 -464 15 -63 15 -81 4 -138 -8 -36 -14 -119 -14 -185 0 -105 3
-127 24 -174 l24 -54 -28 -52 c-14 -28 -57 -88 -94 -132 -161 -194 -258 -317
-287 -365 -11 -18 -37 -42 -56 -52 l-37 -20 -238 48 c-132 27 -264 57 -294 67
-30 10 -91 25 -135 34 -44 9 -101 25 -126 35 -56 23 -198 70 -212 70 -5 0 -37
19 -70 42 -34 22 -86 52 -117 66 -30 14 -94 51 -142 84 -74 49 -178 100 -423
208 -115 51 -581 108 -730 90 -38 -5 -106 -9 -150 -9 -82 -1 -251 -21 -385
-46 -41 -8 -140 -19 -220 -25 -80 -6 -164 -15 -188 -20 -23 -6 -62 -10 -86
-10 -25 0 -56 -4 -71 -10 -24 -9 -46 -7 -140 15 -27 6 -115 80 -135 113 -33
55 -60 133 -70 199 -18 114 -32 272 -35 383 -4 166 -33 493 -54 619 -18 105
-35 267 -48 456 l-4 71 39 -4 c22 -2 74 4 116 13 42 10 89 15 104 12 30 -6
157 9 212 24 19 6 69 19 110 30 41 11 111 38 155 61 77 40 108 48 255 67 36 5
81 16 100 24 19 8 64 18 100 21 36 4 92 17 125 28 74 25 181 38 260 31 33 -3
80 -7 105 -8z m215 -2159 c194 -19 333 -50 440 -98 50 -22 126 -56 170 -76 44
-20 120 -63 169 -95 49 -33 113 -70 143 -83 30 -14 81 -42 113 -64 36 -25 105
-55 182 -81 67 -23 134 -47 148 -54 14 -7 57 -18 95 -25 39 -7 95 -21 125 -31
74 -25 540 -119 591 -119 44 0 95 23 168 75 l48 35 -2 -228 c-3 -410 -29 -912
-55 -1077 -6 -33 -10 -90 -10 -127 0 -37 -7 -100 -15 -140 -9 -40 -22 -131
-30 -203 -22 -199 -35 -297 -45 -335 -6 -19 -10 -52 -10 -73 0 -63 -49 -289
-73 -334 -20 -40 -25 -43 -62 -43 -43 0 -196 35 -310 70 -38 12 -97 29 -130
37 -33 8 -77 21 -99 29 -71 27 -530 117 -631 124 -96 7 -153 15 -335 46 -47 8
-125 14 -175 14 -67 0 -148 11 -315 44 -124 25 -263 49 -308 55 -62 8 -98 19
-137 41 -29 17 -93 39 -142 50 -126 29 -389 53 -441 41 -25 -5 -58 -5 -80 0
-20 5 -78 9 -128 9 -87 0 -96 2 -170 40 -71 35 -85 47 -131 113 -29 41 -53 82
-53 90 0 9 9 31 20 49 11 18 20 40 20 48 0 8 7 29 16 45 22 40 53 120 67 170
6 22 18 51 28 65 22 32 69 260 69 336 -1 121 -26 240 -71 329 l-42 84 8 238
c5 131 9 389 11 573 l2 335 31 -3 c17 -2 56 4 88 12 32 8 130 20 218 25 88 6
189 17 225 25 225 50 547 67 805 42z"/>
<path d="M15715 3971 c-22 -10 -48 -27 -57 -38 -51 -56 -65 -198 -28 -281 41
-91 89 -122 193 -122 55 0 70 4 103 29 53 39 74 63 90 108 43 121 -18 261
-133 310 -45 18 -121 16 -168 -6z m145 -110 c66 -46 77 -143 20 -193 -52 -47
-120 -34 -146 27 -16 39 -19 131 -4 140 6 3 10 15 10 25 0 34 72 34 120 1z"/>
</g>
</svg>
